solid small-seat
facet normal 1.0 0.0 0.0
  outer loop
    vertex 0.75 14.0 0.0
    vertex 0.75 0.0 14.0
    vertex 0.75 0.0 0.0
  endloop
endfacet
facet normal 1.0 0.0 0.0
  outer loop
    vertex 0.75 0.0 14.0
    vertex 0.75 14.0 0.0
    vertex 0.75 14.0 14.0
  endloop
endfacet
facet normal -0.0 -1.0 -0.0
  outer loop
    vertex 0.75 0.0 14.0
    vertex 0.0 0.0 0.0
    vertex 0.75 0.0 0.0
  endloop
endfacet
facet normal -0.0 -1.0 -0.0
  outer loop
    vertex 0.0 0.0 0.0
    vertex 0.75 0.0 14.0
    vertex 0.0 0.0 14.0
  endloop
endfacet
facet normal -1.0 0.0 0.0
  outer loop
    vertex 0.0 14.0 14.0
    vertex 0.0 0.0 0.0
    vertex 0.0 0.0 14.0
  endloop
endfacet
facet normal -1.0 0.0 0.0
  outer loop
    vertex 0.0 0.0 0.0
    vertex 0.0 14.0 14.0
    vertex 0.0 14.0 0.0
  endloop
endfacet
facet normal 0.0 1.0 0.0
  outer loop
    vertex 0.0 14.0 14.0
    vertex 0.75 14.0 0.0
    vertex 0.0 14.0 0.0
  endloop
endfacet
facet normal 0.0 1.0 0.0
  outer loop
    vertex 0.75 14.0 0.0
    vertex 0.0 14.0 14.0
    vertex 0.75 14.0 14.0
  endloop
endfacet
facet normal 0.0 0.0 1.0
  outer loop
    vertex 0.75 0.0 14.0
    vertex 0.0 14.0 14.0
    vertex 0.0 0.0 14.0
  endloop
endfacet
facet normal 0.0 0.0 1.0
  outer loop
    vertex 0.0 14.0 14.0
    vertex 0.75 0.0 14.0
    vertex 0.75 14.0 14.0
  endloop
endfacet
facet normal 0.0 0.0 -1.0
  outer loop
    vertex 0.75 14.0 0.0
    vertex 0.0 0.0 0.0
    vertex 0.0 14.0 0.0
  endloop
endfacet
facet normal 0.0 0.0 -1.0
  outer loop
    vertex 0.0 0.0 0.0
    vertex 0.75 14.0 0.0
    vertex 0.75 0.0 0.0
  endloop
endfacet
facet normal 0.0 0.0 -1.0
  outer loop
    vertex 14.75 14.0 4.6
    vertex 0.75 0.0 4.6
    vertex 0.75 14.0 4.6
  endloop
endfacet
facet normal 0.0 0.0 -1.0
  outer loop
    vertex 0.75 0.0 4.6
    vertex 14.75 14.0 4.6
    vertex 14.75 0.0 4.6
  endloop
endfacet
facet normal -1.0 0.0 0.0
  outer loop
    vertex 0.75 14.0 5.35
    vertex 0.75 0.0 4.6
    vertex 0.75 0.0 5.35
  endloop
endfacet
facet normal -1.0 0.0 0.0
  outer loop
    vertex 0.75 0.0 4.6
    vertex 0.75 14.0 5.35
    vertex 0.75 14.0 4.6
  endloop
endfacet
facet normal 0.0 1.0 0.0
  outer loop
    vertex 0.75 14.0 5.35
    vertex 14.75 14.0 4.6
    vertex 0.75 14.0 4.6
  endloop
endfacet
facet normal 0.0 1.0 0.0
  outer loop
    vertex 14.75 14.0 4.6
    vertex 0.75 14.0 5.35
    vertex 14.75 14.0 5.35
  endloop
endfacet
facet normal 1.0 0.0 0.0
  outer loop
    vertex 14.75 14.0 4.6
    vertex 14.75 0.0 5.35
    vertex 14.75 0.0 4.6
  endloop
endfacet
facet normal 1.0 0.0 0.0
  outer loop
    vertex 14.75 0.0 5.35
    vertex 14.75 14.0 4.6
    vertex 14.75 14.0 5.35
  endloop
endfacet
facet normal -0.0 -1.0 -0.0
  outer loop
    vertex 14.75 0.0 5.35
    vertex 0.75 0.0 4.6
    vertex 14.75 0.0 4.6
  endloop
endfacet
facet normal -0.0 -1.0 -0.0
  outer loop
    vertex 0.75 0.0 4.6
    vertex 14.75 0.0 5.35
    vertex 0.75 0.0 5.35
  endloop
endfacet
facet normal 0.0 0.0 1.0
  outer loop
    vertex 14.75 0.0 5.35
    vertex 0.75 14.0 5.35
    vertex 0.75 0.0 5.35
  endloop
endfacet
facet normal 0.0 0.0 1.0
  outer loop
    vertex 0.75 14.0 5.35
    vertex 14.75 0.0 5.35
    vertex 14.75 14.0 5.35
  endloop
endfacet
facet normal 2.7755575615628914e-17 -1.0 0.0
  outer loop
    vertex 14.75 13.25 0.0
    vertex 0.75 13.25 14.0
    vertex 0.75 13.25 0.0
  endloop
endfacet
facet normal 2.7755575615628914e-17 -1.0 0.0
  outer loop
    vertex 0.75 13.25 14.0
    vertex 14.75 13.25 0.0
    vertex 14.75 13.25 14.0
  endloop
endfacet
facet normal -1.0 -2.7755575615628914e-17 -0.0
  outer loop
    vertex 0.75 13.25 14.0
    vertex 0.75 14.0 0.0
    vertex 0.75 13.25 0.0
  endloop
endfacet
facet normal -1.0 -2.7755575615628914e-17 -0.0
  outer loop
    vertex 0.75 14.0 0.0
    vertex 0.75 13.25 14.0
    vertex 0.75 14.0 14.0
  endloop
endfacet
facet normal -2.7755575615628914e-17 1.0 0.0
  outer loop
    vertex 14.75 14.0 14.0
    vertex 0.75 14.0 0.0
    vertex 0.75 14.0 14.0
  endloop
endfacet
facet normal -2.7755575615628914e-17 1.0 0.0
  outer loop
    vertex 0.75 14.0 0.0
    vertex 14.75 14.0 14.0
    vertex 14.75 14.0 0.0
  endloop
endfacet
facet normal 1.0 2.7755575615628914e-17 0.0
  outer loop
    vertex 14.75 14.0 14.0
    vertex 14.75 13.25 0.0
    vertex 14.75 14.0 0.0
  endloop
endfacet
facet normal 1.0 2.7755575615628914e-17 0.0
  outer loop
    vertex 14.75 13.25 0.0
    vertex 14.75 14.0 14.0
    vertex 14.75 13.25 14.0
  endloop
endfacet
facet normal 0.0 0.0 1.0
  outer loop
    vertex 0.75 13.25 14.0
    vertex 14.75 14.0 14.0
    vertex 0.75 14.0 14.0
  endloop
endfacet
facet normal 0.0 0.0 1.0
  outer loop
    vertex 14.75 14.0 14.0
    vertex 0.75 13.25 14.0
    vertex 14.75 13.25 14.0
  endloop
endfacet
facet normal 0.0 0.0 -1.0
  outer loop
    vertex 14.75 13.25 0.0
    vertex 0.75 14.0 0.0
    vertex 14.75 14.0 0.0
  endloop
endfacet
facet normal 0.0 0.0 -1.0
  outer loop
    vertex 0.75 14.0 0.0
    vertex 14.75 13.25 0.0
    vertex 0.75 13.25 0.0
  endloop
endfacet
facet normal 1.0 0.0 0.0
  outer loop
    vertex 15.5 14.0 0.0
    vertex 15.5 0.0 14.0
    vertex 15.5 0.0 0.0
  endloop
endfacet
facet normal 1.0 0.0 0.0
  outer loop
    vertex 15.5 0.0 14.0
    vertex 15.5 14.0 0.0
    vertex 15.5 14.0 14.0
  endloop
endfacet
facet normal -0.0 -1.0 -0.0
  outer loop
    vertex 15.5 0.0 14.0
    vertex 14.75 0.0 0.0
    vertex 15.5 0.0 0.0
  endloop
endfacet
facet normal -0.0 -1.0 -0.0
  outer loop
    vertex 14.75 0.0 0.0
    vertex 15.5 0.0 14.0
    vertex 14.75 0.0 14.0
  endloop
endfacet
facet normal -1.0 0.0 0.0
  outer loop
    vertex 14.75 14.0 14.0
    vertex 14.75 0.0 0.0
    vertex 14.75 0.0 14.0
  endloop
endfacet
facet normal -1.0 0.0 0.0
  outer loop
    vertex 14.75 0.0 0.0
    vertex 14.75 14.0 14.0
    vertex 14.75 14.0 0.0
  endloop
endfacet
facet normal 0.0 1.0 0.0
  outer loop
    vertex 14.75 14.0 14.0
    vertex 15.5 14.0 0.0
    vertex 14.75 14.0 0.0
  endloop
endfacet
facet normal 0.0 1.0 0.0
  outer loop
    vertex 15.5 14.0 0.0
    vertex 14.75 14.0 14.0
    vertex 15.5 14.0 14.0
  endloop
endfacet
facet normal 0.0 0.0 1.0
  outer loop
    vertex 15.5 0.0 14.0
    vertex 14.75 14.0 14.0
    vertex 14.75 0.0 14.0
  endloop
endfacet
facet normal 0.0 0.0 1.0
  outer loop
    vertex 14.75 14.0 14.0
    vertex 15.5 0.0 14.0
    vertex 15.5 14.0 14.0
  endloop
endfacet
facet normal 0.0 0.0 -1.0
  outer loop
    vertex 15.5 14.0 0.0
    vertex 14.75 0.0 0.0
    vertex 14.75 14.0 0.0
  endloop
endfacet
facet normal 0.0 0.0 -1.0
  outer loop
    vertex 14.75 0.0 0.0
    vertex 15.5 14.0 0.0
    vertex 15.5 0.0 0.0
  endloop
endfacet
facet normal -1.0 0.0 1.1657341758564144e-15
  outer loop
    vertex 35.098219000000014 14.0 13.999999999999986
    vertex 35.098219 0.0 -1.4210854715202004e-14
    vertex 35.098219000000014 0.0 13.999999999999986
  endloop
endfacet
facet normal -1.0 0.0 1.1657341758564144e-15
  outer loop
    vertex 35.098219 0.0 -1.4210854715202004e-14
    vertex 35.098219000000014 14.0 13.999999999999986
    vertex 35.098219 14.0 -1.4210854715202004e-14
  endloop
endfacet
facet normal 0.0 -1.0 0.0
  outer loop
    vertex 35.098219 0.0 -1.4210854715202004e-14
    vertex 35.848219000000014 0.0 13.999999999999986
    vertex 35.098219000000014 0.0 13.999999999999986
  endloop
endfacet
facet normal 0.0 -1.0 0.0
  outer loop
    vertex 35.848219000000014 0.0 13.999999999999986
    vertex 35.098219 0.0 -1.4210854715202004e-14
    vertex 35.848219 0.0 -1.4210854715202004e-14
  endloop
endfacet
facet normal 1.0 0.0 -1.1657341758564144e-15
  outer loop
    vertex 35.848219 14.0 -1.4210854715202004e-14
    vertex 35.848219000000014 0.0 13.999999999999986
    vertex 35.848219 0.0 -1.4210854715202004e-14
  endloop
endfacet
facet normal 1.0 0.0 -1.1657341758564144e-15
  outer loop
    vertex 35.848219000000014 0.0 13.999999999999986
    vertex 35.848219 14.0 -1.4210854715202004e-14
    vertex 35.848219000000014 14.0 13.999999999999986
  endloop
endfacet
facet normal 0.0 1.0 0.0
  outer loop
    vertex 35.848219 14.0 -1.4210854715202004e-14
    vertex 35.098219000000014 14.0 13.999999999999986
    vertex 35.848219000000014 14.0 13.999999999999986
  endloop
endfacet
facet normal 0.0 1.0 0.0
  outer loop
    vertex 35.098219000000014 14.0 13.999999999999986
    vertex 35.848219 14.0 -1.4210854715202004e-14
    vertex 35.098219 14.0 -1.4210854715202004e-14
  endloop
endfacet
facet normal -1.1657341758564144e-15 0.0 -1.0
  outer loop
    vertex 35.098219 0.0 -1.4210854715202004e-14
    vertex 35.848219 14.0 -1.4210854715202004e-14
    vertex 35.848219 0.0 -1.4210854715202004e-14
  endloop
endfacet
facet normal -1.1657341758564144e-15 0.0 -1.0
  outer loop
    vertex 35.848219 14.0 -1.4210854715202004e-14
    vertex 35.098219 0.0 -1.4210854715202004e-14
    vertex 35.098219 14.0 -1.4210854715202004e-14
  endloop
endfacet
facet normal 1.1657341758564144e-15 0.0 1.0
  outer loop
    vertex 35.098219000000014 14.0 13.999999999999986
    vertex 35.848219000000014 0.0 13.999999999999986
    vertex 35.848219000000014 14.0 13.999999999999986
  endloop
endfacet
facet normal 1.1657341758564144e-15 0.0 1.0
  outer loop
    vertex 35.848219000000014 0.0 13.999999999999986
    vertex 35.098219000000014 14.0 13.999999999999986
    vertex 35.098219000000014 0.0 13.999999999999986
  endloop
endfacet
facet normal 1.1657341758564144e-15 0.0 1.0
  outer loop
    vertex 21.098219000000007 14.0 9.400000000000004
    vertex 35.09821900000001 0.0 9.399999999999988
    vertex 35.09821900000001 14.0 9.399999999999988
  endloop
endfacet
facet normal 1.1657341758564144e-15 0.0 1.0
  outer loop
    vertex 35.09821900000001 0.0 9.399999999999988
    vertex 21.098219000000007 14.0 9.400000000000004
    vertex 21.098219000000007 0.0 9.400000000000004
  endloop
endfacet
facet normal 1.0 0.0 -1.1657341758564144e-15
  outer loop
    vertex 35.09821900000001 14.0 8.649999999999988
    vertex 35.09821900000001 0.0 9.399999999999988
    vertex 35.09821900000001 0.0 8.649999999999988
  endloop
endfacet
facet normal 1.0 0.0 -1.1657341758564144e-15
  outer loop
    vertex 35.09821900000001 0.0 9.399999999999988
    vertex 35.09821900000001 14.0 8.649999999999988
    vertex 35.09821900000001 14.0 9.399999999999988
  endloop
endfacet
facet normal 0.0 1.0 0.0
  outer loop
    vertex 35.09821900000001 14.0 8.649999999999988
    vertex 21.098219000000007 14.0 9.400000000000004
    vertex 35.09821900000001 14.0 9.399999999999988
  endloop
endfacet
facet normal 0.0 1.0 0.0
  outer loop
    vertex 21.098219000000007 14.0 9.400000000000004
    vertex 35.09821900000001 14.0 8.649999999999988
    vertex 21.098219000000007 14.0 8.650000000000004
  endloop
endfacet
facet normal -1.0 0.0 1.1657341758564144e-15
  outer loop
    vertex 21.098219000000007 14.0 9.400000000000004
    vertex 21.098219000000007 0.0 8.650000000000004
    vertex 21.098219000000007 0.0 9.400000000000004
  endloop
endfacet
facet normal -1.0 0.0 1.1657341758564144e-15
  outer loop
    vertex 21.098219000000007 0.0 8.650000000000004
    vertex 21.098219000000007 14.0 9.400000000000004
    vertex 21.098219000000007 14.0 8.650000000000004
  endloop
endfacet
facet normal 0.0 -1.0 0.0
  outer loop
    vertex 21.098219000000007 0.0 8.650000000000004
    vertex 35.09821900000001 0.0 9.399999999999988
    vertex 21.098219000000007 0.0 9.400000000000004
  endloop
endfacet
facet normal 0.0 -1.0 0.0
  outer loop
    vertex 35.09821900000001 0.0 9.399999999999988
    vertex 21.098219000000007 0.0 8.650000000000004
    vertex 35.09821900000001 0.0 8.649999999999988
  endloop
endfacet
facet normal -1.1657341758564144e-15 0.0 -1.0
  outer loop
    vertex 21.098219000000007 0.0 8.650000000000004
    vertex 35.09821900000001 14.0 8.649999999999988
    vertex 35.09821900000001 0.0 8.649999999999988
  endloop
endfacet
facet normal -1.1657341758564144e-15 0.0 -1.0
  outer loop
    vertex 35.09821900000001 14.0 8.649999999999988
    vertex 21.098219000000007 0.0 8.650000000000004
    vertex 21.098219000000007 14.0 8.650000000000004
  endloop
endfacet
facet normal -2.7755575615628914e-17 -1.0 3.235562306570556e-32
  outer loop
    vertex 21.098219000000014 13.25 14.000000000000002
    vertex 35.098219 13.25 -1.4210854715202004e-14
    vertex 35.098219000000014 13.25 13.999999999999986
  endloop
endfacet
facet normal -2.7755575615628914e-17 -1.0 3.235562306570556e-32
  outer loop
    vertex 35.098219 13.25 -1.4210854715202004e-14
    vertex 21.098219000000014 13.25 14.000000000000002
    vertex 21.098219 13.25 1.7763568394002505e-15
  endloop
endfacet
facet normal 1.0 -2.7755575615628914e-17 -1.1657341758564144e-15
  outer loop
    vertex 35.098219 13.25 -1.4210854715202004e-14
    vertex 35.098219000000014 14.0 13.999999999999986
    vertex 35.098219000000014 13.25 13.999999999999986
  endloop
endfacet
facet normal 1.0 -2.7755575615628914e-17 -1.1657341758564144e-15
  outer loop
    vertex 35.098219000000014 14.0 13.999999999999986
    vertex 35.098219 13.25 -1.4210854715202004e-14
    vertex 35.098219 14.0 -1.4210854715202004e-14
  endloop
endfacet
facet normal 2.7755575615628914e-17 1.0 -3.235562306570556e-32
  outer loop
    vertex 21.098219 14.0 1.7763568394002505e-15
    vertex 35.098219000000014 14.0 13.999999999999986
    vertex 35.098219 14.0 -1.4210854715202004e-14
  endloop
endfacet
facet normal 2.7755575615628914e-17 1.0 -3.235562306570556e-32
  outer loop
    vertex 35.098219000000014 14.0 13.999999999999986
    vertex 21.098219 14.0 1.7763568394002505e-15
    vertex 21.098219000000014 14.0 14.000000000000002
  endloop
endfacet
facet normal -1.0 2.7755575615628914e-17 1.1657341758564144e-15
  outer loop
    vertex 21.098219 14.0 1.7763568394002505e-15
    vertex 21.098219000000014 13.25 14.000000000000002
    vertex 21.098219000000014 14.0 14.000000000000002
  endloop
endfacet
facet normal -1.0 2.7755575615628914e-17 1.1657341758564144e-15
  outer loop
    vertex 21.098219000000014 13.25 14.000000000000002
    vertex 21.098219 14.0 1.7763568394002505e-15
    vertex 21.098219 13.25 1.7763568394002505e-15
  endloop
endfacet
facet normal -1.1657341758564144e-15 0.0 -1.0
  outer loop
    vertex 35.098219 13.25 -1.4210854715202004e-14
    vertex 21.098219 14.0 1.7763568394002505e-15
    vertex 35.098219 14.0 -1.4210854715202004e-14
  endloop
endfacet
facet normal -1.1657341758564144e-15 0.0 -1.0
  outer loop
    vertex 21.098219 14.0 1.7763568394002505e-15
    vertex 35.098219 13.25 -1.4210854715202004e-14
    vertex 21.098219 13.25 1.7763568394002505e-15
  endloop
endfacet
facet normal 1.1657341758564144e-15 0.0 1.0
  outer loop
    vertex 21.098219000000014 13.25 14.000000000000002
    vertex 35.098219000000014 14.0 13.999999999999986
    vertex 21.098219000000014 14.0 14.000000000000002
  endloop
endfacet
facet normal 1.1657341758564144e-15 0.0 1.0
  outer loop
    vertex 35.098219000000014 14.0 13.999999999999986
    vertex 21.098219000000014 13.25 14.000000000000002
    vertex 35.098219000000014 13.25 13.999999999999986
  endloop
endfacet
facet normal -1.0 0.0 1.1657341758564144e-15
  outer loop
    vertex 20.348219000000014 14.0 14.000000000000004
    vertex 20.348218999999997 0.0 3.552713678800501e-15
    vertex 20.348219000000014 0.0 14.000000000000004
  endloop
endfacet
facet normal -1.0 0.0 1.1657341758564144e-15
  outer loop
    vertex 20.348218999999997 0.0 3.552713678800501e-15
    vertex 20.348219000000014 14.0 14.000000000000004
    vertex 20.348218999999997 14.0 3.552713678800501e-15
  endloop
endfacet
facet normal 0.0 -1.0 0.0
  outer loop
    vertex 20.348218999999997 0.0 3.552713678800501e-15
    vertex 21.098219000000014 0.0 14.000000000000004
    vertex 20.348219000000014 0.0 14.000000000000004
  endloop
endfacet
facet normal 0.0 -1.0 0.0
  outer loop
    vertex 21.098219000000014 0.0 14.000000000000004
    vertex 20.348218999999997 0.0 3.552713678800501e-15
    vertex 21.098218999999997 0.0 3.552713678800501e-15
  endloop
endfacet
facet normal 1.0 0.0 -1.1657341758564144e-15
  outer loop
    vertex 21.098218999999997 14.0 3.552713678800501e-15
    vertex 21.098219000000014 0.0 14.000000000000004
    vertex 21.098218999999997 0.0 3.552713678800501e-15
  endloop
endfacet
facet normal 1.0 0.0 -1.1657341758564144e-15
  outer loop
    vertex 21.098219000000014 0.0 14.000000000000004
    vertex 21.098218999999997 14.0 3.552713678800501e-15
    vertex 21.098219000000014 14.0 14.000000000000004
  endloop
endfacet
facet normal 0.0 1.0 0.0
  outer loop
    vertex 21.098218999999997 14.0 3.552713678800501e-15
    vertex 20.348219000000014 14.0 14.000000000000004
    vertex 21.098219000000014 14.0 14.000000000000004
  endloop
endfacet
facet normal 0.0 1.0 0.0
  outer loop
    vertex 20.348219000000014 14.0 14.000000000000004
    vertex 21.098218999999997 14.0 3.552713678800501e-15
    vertex 20.348218999999997 14.0 3.552713678800501e-15
  endloop
endfacet
facet normal -1.1657341758564144e-15 0.0 -1.0
  outer loop
    vertex 20.348218999999997 0.0 3.552713678800501e-15
    vertex 21.098218999999997 14.0 3.552713678800501e-15
    vertex 21.098218999999997 0.0 3.552713678800501e-15
  endloop
endfacet
facet normal -1.1657341758564144e-15 0.0 -1.0
  outer loop
    vertex 21.098218999999997 14.0 3.552713678800501e-15
    vertex 20.348218999999997 0.0 3.552713678800501e-15
    vertex 20.348218999999997 14.0 3.552713678800501e-15
  endloop
endfacet
facet normal 1.1657341758564144e-15 0.0 1.0
  outer loop
    vertex 20.348219000000014 14.0 14.000000000000004
    vertex 21.098219000000014 0.0 14.000000000000004
    vertex 21.098219000000014 14.0 14.000000000000004
  endloop
endfacet
facet normal 1.1657341758564144e-15 0.0 1.0
  outer loop
    vertex 21.098219000000014 0.0 14.000000000000004
    vertex 20.348219000000014 14.0 14.000000000000004
    vertex 20.348219000000014 0.0 14.000000000000004
  endloop
endfacet
facet normal 1.0 0.0 0.0
  outer loop
    vertex 40.688562 12.927313875095551 14.942316949989957
    vertex 40.688562 -1.0726861249044468 0.942316949989956
    vertex 40.688562 12.927313875095553 0.9423169499899571
  endloop
endfacet
facet normal 1.0 0.0 0.0
  outer loop
    vertex 40.688562 -1.0726861249044468 0.942316949989956
    vertex 40.688562 12.927313875095551 14.942316949989957
    vertex 40.688562 -1.0726861249044486 14.942316949989955
  endloop
endfacet
facet normal -0.0 8.326672684688674e-17 -1.0
  outer loop
    vertex 40.688562 -1.0726861249044468 0.942316949989956
    vertex 39.938562 12.927313875095553 0.9423169499899571
    vertex 40.688562 12.927313875095553 0.9423169499899571
  endloop
endfacet
facet normal -0.0 8.326672684688674e-17 -1.0
  outer loop
    vertex 39.938562 12.927313875095553 0.9423169499899571
    vertex 40.688562 -1.0726861249044468 0.942316949989956
    vertex 39.938562 -1.0726861249044468 0.942316949989956
  endloop
endfacet
facet normal -1.0 -0.0 0.0
  outer loop
    vertex 39.938562 -1.0726861249044486 14.942316949989955
    vertex 39.938562 12.927313875095553 0.9423169499899571
    vertex 39.938562 -1.0726861249044468 0.942316949989956
  endloop
endfacet
facet normal -1.0 -0.0 0.0
  outer loop
    vertex 39.938562 12.927313875095553 0.9423169499899571
    vertex 39.938562 -1.0726861249044486 14.942316949989955
    vertex 39.938562 12.927313875095551 14.942316949989957
  endloop
endfacet
facet normal 0.0 -8.326672684688674e-17 1.0
  outer loop
    vertex 39.938562 -1.0726861249044486 14.942316949989955
    vertex 40.688562 12.927313875095551 14.942316949989957
    vertex 39.938562 12.927313875095551 14.942316949989957
  endloop
endfacet
facet normal 0.0 -8.326672684688674e-17 1.0
  outer loop
    vertex 40.688562 12.927313875095551 14.942316949989957
    vertex 39.938562 -1.0726861249044486 14.942316949989955
    vertex 40.688562 -1.0726861249044486 14.942316949989955
  endloop
endfacet
facet normal 0.0 -1.0 -8.326672684688674e-17
  outer loop
    vertex 40.688562 -1.0726861249044468 0.942316949989956
    vertex 39.938562 -1.0726861249044486 14.942316949989955
    vertex 39.938562 -1.0726861249044468 0.942316949989956
  endloop
endfacet
facet normal 0.0 -1.0 -8.326672684688674e-17
  outer loop
    vertex 39.938562 -1.0726861249044486 14.942316949989955
    vertex 40.688562 -1.0726861249044468 0.942316949989956
    vertex 40.688562 -1.0726861249044486 14.942316949989955
  endloop
endfacet
facet normal 0.0 1.0 8.326672684688674e-17
  outer loop
    vertex 40.688562 12.927313875095551 14.942316949989957
    vertex 39.938562 12.927313875095553 0.9423169499899571
    vertex 39.938562 12.927313875095551 14.942316949989957
  endloop
endfacet
facet normal 0.0 1.0 8.326672684688674e-17
  outer loop
    vertex 39.938562 12.927313875095553 0.9423169499899571
    vertex 40.688562 12.927313875095551 14.942316949989957
    vertex 40.688562 12.927313875095553 0.9423169499899571
  endloop
endfacet
facet normal 0.0 1.0 8.326672684688674e-17
  outer loop
    vertex 54.688562 8.327313875095552 14.942316949989957
    vertex 40.688562 8.327313875095554 0.9423169499899567
    vertex 40.688562 8.327313875095552 14.942316949989957
  endloop
endfacet
facet normal 0.0 1.0 8.326672684688674e-17
  outer loop
    vertex 40.688562 8.327313875095554 0.9423169499899567
    vertex 54.688562 8.327313875095552 14.942316949989957
    vertex 54.688562 8.327313875095554 0.9423169499899567
  endloop
endfacet
facet normal -1.0 -0.0 0.0
  outer loop
    vertex 40.688562 7.577313875095553 14.942316949989957
    vertex 40.688562 8.327313875095554 0.9423169499899567
    vertex 40.688562 7.5773138750955535 0.9423169499899566
  endloop
endfacet
facet normal -1.0 -0.0 0.0
  outer loop
    vertex 40.688562 8.327313875095554 0.9423169499899567
    vertex 40.688562 7.577313875095553 14.942316949989957
    vertex 40.688562 8.327313875095552 14.942316949989957
  endloop
endfacet
facet normal 0.0 -8.326672684688674e-17 1.0
  outer loop
    vertex 40.688562 7.577313875095553 14.942316949989957
    vertex 54.688562 8.327313875095552 14.942316949989957
    vertex 40.688562 8.327313875095552 14.942316949989957
  endloop
endfacet
facet normal 0.0 -8.326672684688674e-17 1.0
  outer loop
    vertex 54.688562 8.327313875095552 14.942316949989957
    vertex 40.688562 7.577313875095553 14.942316949989957
    vertex 54.688562 7.577313875095553 14.942316949989957
  endloop
endfacet
facet normal 1.0 0.0 0.0
  outer loop
    vertex 54.688562 8.327313875095552 14.942316949989957
    vertex 54.688562 7.5773138750955535 0.9423169499899566
    vertex 54.688562 8.327313875095554 0.9423169499899567
  endloop
endfacet
facet normal 1.0 0.0 0.0
  outer loop
    vertex 54.688562 7.5773138750955535 0.9423169499899566
    vertex 54.688562 8.327313875095552 14.942316949989957
    vertex 54.688562 7.577313875095553 14.942316949989957
  endloop
endfacet
facet normal -0.0 8.326672684688674e-17 -1.0
  outer loop
    vertex 54.688562 7.5773138750955535 0.9423169499899566
    vertex 40.688562 8.327313875095554 0.9423169499899567
    vertex 54.688562 8.327313875095554 0.9423169499899567
  endloop
endfacet
facet normal -0.0 8.326672684688674e-17 -1.0
  outer loop
    vertex 40.688562 8.327313875095554 0.9423169499899567
    vertex 54.688562 7.5773138750955535 0.9423169499899566
    vertex 40.688562 7.5773138750955535 0.9423169499899566
  endloop
endfacet
facet normal 0.0 -1.0 -8.326672684688674e-17
  outer loop
    vertex 54.688562 7.5773138750955535 0.9423169499899566
    vertex 40.688562 7.577313875095553 14.942316949989957
    vertex 40.688562 7.5773138750955535 0.9423169499899566
  endloop
endfacet
facet normal 0.0 -1.0 -8.326672684688674e-17
  outer loop
    vertex 40.688562 7.577313875095553 14.942316949989957
    vertex 54.688562 7.5773138750955535 0.9423169499899566
    vertex 54.688562 7.577313875095553 14.942316949989957
  endloop
endfacet
facet normal 2.7755575615628914e-17 8.326672684688674e-17 -1.0
  outer loop
    vertex 54.688562 12.927313875095551 14.192316949989957
    vertex 40.688562 -1.0726861249044486 14.192316949989955
    vertex 40.688562 12.927313875095551 14.192316949989957
  endloop
endfacet
facet normal 2.7755575615628914e-17 8.326672684688674e-17 -1.0
  outer loop
    vertex 40.688562 -1.0726861249044486 14.192316949989955
    vertex 54.688562 12.927313875095551 14.192316949989957
    vertex 54.688562 -1.0726861249044486 14.192316949989957
  endloop
endfacet
facet normal -1.0 2.311115933264683e-33 -2.7755575615628914e-17
  outer loop
    vertex 40.688562 -1.0726861249044486 14.192316949989955
    vertex 40.688562 12.927313875095551 14.942316949989957
    vertex 40.688562 12.927313875095551 14.192316949989957
  endloop
endfacet
facet normal -1.0 2.311115933264683e-33 -2.7755575615628914e-17
  outer loop
    vertex 40.688562 12.927313875095551 14.942316949989957
    vertex 40.688562 -1.0726861249044486 14.192316949989955
    vertex 40.688562 -1.0726861249044486 14.942316949989955
  endloop
endfacet
facet normal -2.7755575615628914e-17 -8.326672684688674e-17 1.0
  outer loop
    vertex 54.688562 -1.0726861249044486 14.942316949989957
    vertex 40.688562 12.927313875095551 14.942316949989957
    vertex 40.688562 -1.0726861249044486 14.942316949989955
  endloop
endfacet
facet normal -2.7755575615628914e-17 -8.326672684688674e-17 1.0
  outer loop
    vertex 40.688562 12.927313875095551 14.942316949989957
    vertex 54.688562 -1.0726861249044486 14.942316949989957
    vertex 54.688562 12.927313875095551 14.942316949989957
  endloop
endfacet
facet normal 1.0 -2.311115933264683e-33 2.7755575615628914e-17
  outer loop
    vertex 54.688562 -1.0726861249044486 14.942316949989957
    vertex 54.688562 12.927313875095551 14.192316949989957
    vertex 54.688562 12.927313875095551 14.942316949989957
  endloop
endfacet
facet normal 1.0 -2.311115933264683e-33 2.7755575615628914e-17
  outer loop
    vertex 54.688562 12.927313875095551 14.192316949989957
    vertex 54.688562 -1.0726861249044486 14.942316949989957
    vertex 54.688562 -1.0726861249044486 14.192316949989957
  endloop
endfacet
facet normal 0.0 -1.0 -8.326672684688674e-17
  outer loop
    vertex 40.688562 -1.0726861249044486 14.192316949989955
    vertex 54.688562 -1.0726861249044486 14.942316949989957
    vertex 40.688562 -1.0726861249044486 14.942316949989955
  endloop
endfacet
facet normal 0.0 -1.0 -8.326672684688674e-17
  outer loop
    vertex 54.688562 -1.0726861249044486 14.942316949989957
    vertex 40.688562 -1.0726861249044486 14.192316949989955
    vertex 54.688562 -1.0726861249044486 14.192316949989957
  endloop
endfacet
facet normal 0.0 1.0 8.326672684688674e-17
  outer loop
    vertex 54.688562 12.927313875095551 14.192316949989957
    vertex 40.688562 12.927313875095551 14.942316949989957
    vertex 54.688562 12.927313875095551 14.942316949989957
  endloop
endfacet
facet normal 0.0 1.0 8.326672684688674e-17
  outer loop
    vertex 40.688562 12.927313875095551 14.942316949989957
    vertex 54.688562 12.927313875095551 14.192316949989957
    vertex 40.688562 12.927313875095551 14.192316949989957
  endloop
endfacet
facet normal 1.0 0.0 0.0
  outer loop
    vertex 55.438562 12.927313875095551 14.942316949989957
    vertex 55.438562 -1.0726861249044468 0.942316949989956
    vertex 55.438562 12.927313875095553 0.9423169499899571
  endloop
endfacet
facet normal 1.0 0.0 0.0
  outer loop
    vertex 55.438562 -1.0726861249044468 0.942316949989956
    vertex 55.438562 12.927313875095551 14.942316949989957
    vertex 55.438562 -1.0726861249044486 14.942316949989955
  endloop
endfacet
facet normal -0.0 8.326672684688674e-17 -1.0
  outer loop
    vertex 55.438562 -1.0726861249044468 0.942316949989956
    vertex 54.688562 12.927313875095553 0.9423169499899571
    vertex 55.438562 12.927313875095553 0.9423169499899571
  endloop
endfacet
facet normal -0.0 8.326672684688674e-17 -1.0
  outer loop
    vertex 54.688562 12.927313875095553 0.9423169499899571
    vertex 55.438562 -1.0726861249044468 0.942316949989956
    vertex 54.688562 -1.0726861249044468 0.942316949989956
  endloop
endfacet
facet normal -1.0 -0.0 0.0
  outer loop
    vertex 54.688562 -1.0726861249044486 14.942316949989955
    vertex 54.688562 12.927313875095553 0.9423169499899571
    vertex 54.688562 -1.0726861249044468 0.942316949989956
  endloop
endfacet
facet normal -1.0 -0.0 0.0
  outer loop
    vertex 54.688562 12.927313875095553 0.9423169499899571
    vertex 54.688562 -1.0726861249044486 14.942316949989955
    vertex 54.688562 12.927313875095551 14.942316949989957
  endloop
endfacet
facet normal 0.0 -8.326672684688674e-17 1.0
  outer loop
    vertex 54.688562 -1.0726861249044486 14.942316949989955
    vertex 55.438562 12.927313875095551 14.942316949989957
    vertex 54.688562 12.927313875095551 14.942316949989957
  endloop
endfacet
facet normal 0.0 -8.326672684688674e-17 1.0
  outer loop
    vertex 55.438562 12.927313875095551 14.942316949989957
    vertex 54.688562 -1.0726861249044486 14.942316949989955
    vertex 55.438562 -1.0726861249044486 14.942316949989955
  endloop
endfacet
facet normal 0.0 -1.0 -8.326672684688674e-17
  outer loop
    vertex 55.438562 -1.0726861249044468 0.942316949989956
    vertex 54.688562 -1.0726861249044486 14.942316949989955
    vertex 54.688562 -1.0726861249044468 0.942316949989956
  endloop
endfacet
facet normal 0.0 -1.0 -8.326672684688674e-17
  outer loop
    vertex 54.688562 -1.0726861249044486 14.942316949989955
    vertex 55.438562 -1.0726861249044468 0.942316949989956
    vertex 55.438562 -1.0726861249044486 14.942316949989955
  endloop
endfacet
facet normal 0.0 1.0 8.326672684688674e-17
  outer loop
    vertex 55.438562 12.927313875095551 14.942316949989957
    vertex 54.688562 12.927313875095553 0.9423169499899571
    vertex 54.688562 12.927313875095551 14.942316949989957
  endloop
endfacet
facet normal 0.0 1.0 8.326672684688674e-17
  outer loop
    vertex 54.688562 12.927313875095553 0.9423169499899571
    vertex 55.438562 12.927313875095551 14.942316949989957
    vertex 55.438562 12.927313875095553 0.9423169499899571
  endloop
endfacet
endsolid small-seat
